<svg xmlns="http://www.w3.org/2000/svg" width="230.44" height="148.198" viewBox="0 0 60.971 39.211"><g aria-label="âŸ¨ð¦âŸ©"><path d="M11.264 0H9.003L0 19.285v.854L8.96 39.21h2.261L2.86 19.712zM22.144 13.696l.085-2.688c0-.085-.213-.128-.298-.128-1.366.427-4.182.896-7.168 1.28l.085 1.45 1.75.171c.597.043.938.342.938 2.475v10.496c0 1.195-.64 1.45-2.048 1.75l-.384.085c-.213.042-.341.128-.341.384v.981l.085.085s3.456-.085 4.95-.085c1.706 0 4.778.085 4.778.085l.085-.085v-.981c0-.256-.17-.342-.384-.384-.981-.128-2.048-.342-2.048-1.835v-11.35c1.792-1.493 3.2-2.047 4.437-2.047 1.067 0 1.75 1.066 1.75 3.754v9.6c0 1.195-.598 1.75-2.006 1.878-.256.042-.384.17-.384.384v.981l.086.085s3.072-.085 4.608-.085c1.664 0 4.736.085 4.736.085l.085-.085v-.981c0-.256-.17-.384-.341-.384-1.024-.128-2.09-.384-2.09-1.878V17.92c0-.597-.044-1.92-.086-2.475 1.664-1.408 3.2-2.09 4.65-2.09 1.024 0 1.707 1.109 1.707 3.669v9.685c0 1.195-.597 1.75-2.048 1.878-.256.042-.341.17-.341.384v.981l.085.085s3.072-.085 4.565-.085c1.664 0 5.12.085 5.12.085l.086-.085v-.981c0-.256-.17-.342-.342-.384l-.34-.086c-1.324-.341-2.092-.597-2.092-1.792v-8.746c0-3.84-.426-6.955-4.906-6.955-2.262 0-4.608 1.11-6.57 2.816-.64-1.664-2.134-2.816-4.396-2.816-2.346 0-4.48 1.365-5.973 2.688zM58.112 19.712l-8.363 19.499h2.262l8.96-19.072v-.854L51.968 0h-2.261z"/></g></svg>
